<svg xmlns="http://www.w3.org/2000/svg" viewBox="0 0 240 240"><defs>
<radialGradient id="ring" cx="0.4" cy="0.32" r="0.75"><stop offset="0" stop-color="#F3E4C2"/><stop offset="0.5" stop-color="#C8973A"/><stop offset="1" stop-color="#8B6310"/></radialGradient>
<linearGradient id="bev" x1="0" y1="0" x2="0" y2="1"><stop offset="0" stop-color="#FFFFFF" stop-opacity="0.5"/><stop offset="0.45" stop-color="#FFFFFF" stop-opacity="0"/><stop offset="0.58" stop-color="#000000" stop-opacity="0"/><stop offset="1" stop-color="#000000" stop-opacity="0.35"/></linearGradient>
<linearGradient id="rimg" x1="0.1" y1="0" x2="0.9" y2="1"><stop offset="0" stop-color="#FFF3C4"/><stop offset="0.3" stop-color="#EAC36B"/><stop offset="0.5" stop-color="#C8973A"/><stop offset="0.72" stop-color="#F0D27E"/><stop offset="1" stop-color="#8A5E12"/></linearGradient>
<radialGradient id="disc" cx="0.42" cy="0.36" r="0.72"><stop offset="0" stop-color="#FFFFFF"/><stop offset="1" stop-color="#FBF5E7"/></radialGradient>
<radialGradient id="ins" cx="0.5" cy="0.46" r="0.55"><stop offset="0.72" stop-color="#4A3308" stop-opacity="0"/><stop offset="1" stop-color="#4A3308" stop-opacity="0.3"/></radialGradient>
<radialGradient id="hl" cx="0.5" cy="0.42" r="0.48"><stop offset="0" stop-color="#FFFFFF" stop-opacity="0.32"/><stop offset="0.6" stop-color="#FFFFFF" stop-opacity="0.08"/><stop offset="1" stop-color="#FFFFFF" stop-opacity="0"/></radialGradient>
<linearGradient id="boxTop" x1="0" y1="0" x2="1" y2="1"><stop offset="0" stop-color="#FCEBB0"/><stop offset="1" stop-color="#EAC36B"/></linearGradient>
<linearGradient id="boxFront" x1="0" y1="0" x2="0" y2="1"><stop offset="0" stop-color="#DDA83A"/><stop offset="1" stop-color="#B07820"/></linearGradient>
<linearGradient id="boxSide" x1="0" y1="0" x2="1" y2="0"><stop offset="0" stop-color="#96660F"/><stop offset="1" stop-color="#7A5510"/></linearGradient>
</defs>
<g transform="translate(120,120)">
<circle r="100" fill="url(#ring)" stroke="#5A3E0A" stroke-width="2"/>
<circle r="100" fill="url(#bev)"/>
<g fill="#EAC36B" stroke="#8A5E12" stroke-width="0.8"><path d="M0 -92 l6 10 -6 5 -6 -5 z"/><path d="M0 92 l6 -10 -6 -5 -6 5 z"/><path d="M-92 0 l10 6 5 -6 -5 -6 z"/><path d="M92 0 l-10 6 -5 -6 5 -6 z"/></g>
<circle r="85" fill="url(#rimg)"/>
<circle r="85" fill="url(#bev)"/>
<circle r="76" fill="url(#disc)"/>
<circle r="76" fill="url(#ins)"/>
<circle cy="-2" r="52" fill="url(#hl)"/>
<g transform="translate(-4,14)">
<path d="M-18 -6 L10 -18 L26 -12 L-2 0 Z" fill="url(#boxTop)" stroke="#7A5510" stroke-width="1.6"/>
<path d="M-18 -6 L-2 0 L-2 22 L-18 16 Z" fill="url(#boxFront)" stroke="#7A5510" stroke-width="1.6"/>
<path d="M-2 0 L26 -12 L26 10 L-2 22 Z" fill="url(#boxSide)" stroke="#7A5510" stroke-width="1.6"/>
<path d="M2 -14 L6 -12.4 L6 21 L2 22.6 Z" fill="#2d6a4f" stroke="#1b4332" stroke-width="1"/>
<path d="M-6 -8 L2 -11 L10 -8 L2 -5 Z" fill="#2d6a4f" stroke="#1b4332" stroke-width="1"/>
<path d="M2 -11 Q-8 -22 -18 -14 Q-6 -14 2 -11 Z" fill="#3f8f63" stroke="#1b4332" stroke-width="1"/>
<path d="M2 -11 Q12 -24 22 -17 Q10 -14 2 -11 Z" fill="#3f8f63" stroke="#1b4332" stroke-width="1"/>
</g>
<g transform="translate(-56,-52)"><path d="M0 -8 L1.9 -1.9 L8 0 L1.9 1.9 L0 8 L-1.9 1.9 L-8 0 L-1.9 -1.9 Z" fill="#FFFFFF"/></g>
<g transform="translate(50,-50)"><path d="M0 -5.5 L1.3 -1.3 L5.5 0 L1.3 1.3 L0 5.5 L-1.3 1.3 L-5.5 0 L-1.3 -1.3 Z" fill="#FFFFFF"/></g>
</g>
</svg>
