<svg xmlns="http://www.w3.org/2000/svg" viewBox="-22 -26.7 52 52"><defs>
<linearGradient id="boxTop" x1="0" y1="0" x2="1" y2="1"><stop offset="0" stop-color="#FCEBB0"/><stop offset="1" stop-color="#EAC36B"/></linearGradient>
<linearGradient id="boxFront" x1="0" y1="0" x2="0" y2="1"><stop offset="0" stop-color="#DDA83A"/><stop offset="1" stop-color="#B07820"/></linearGradient>
<linearGradient id="boxSide" x1="0" y1="0" x2="1" y2="0"><stop offset="0" stop-color="#96660F"/><stop offset="1" stop-color="#7A5510"/></linearGradient>
</defs>
<path d="M-18 -6 L10 -18 L26 -12 L-2 0 Z" fill="url(#boxTop)" stroke="#7A5510" stroke-width="1.6"/>
<path d="M-18 -6 L-2 0 L-2 22 L-18 16 Z" fill="url(#boxFront)" stroke="#7A5510" stroke-width="1.6"/>
<path d="M-2 0 L26 -12 L26 10 L-2 22 Z" fill="url(#boxSide)" stroke="#7A5510" stroke-width="1.6"/>
<path d="M2 -14 L6 -12.4 L6 21 L2 22.6 Z" fill="#2d6a4f" stroke="#1b4332" stroke-width="1"/>
<path d="M-6 -8 L2 -11 L10 -8 L2 -5 Z" fill="#2d6a4f" stroke="#1b4332" stroke-width="1"/>
<path d="M2 -11 Q-8 -22 -18 -14 Q-6 -14 2 -11 Z" fill="#3f8f63" stroke="#1b4332" stroke-width="1"/>
<path d="M2 -11 Q12 -24 22 -17 Q10 -14 2 -11 Z" fill="#3f8f63" stroke="#1b4332" stroke-width="1"/>
</svg>
