<svg xmlns="http://www.w3.org/2000/svg" viewBox="0 0 240 240"><defs>
<radialGradient id="ring" cx="0.4" cy="0.32" r="0.75"><stop offset="0" stop-color="#F3E4C2"/><stop offset="0.5" stop-color="#C8973A"/><stop offset="1" stop-color="#8B6310"/></radialGradient>
<linearGradient id="bev" x1="0" y1="0" x2="0" y2="1"><stop offset="0" stop-color="#FFFFFF" stop-opacity="0.5"/><stop offset="0.45" stop-color="#FFFFFF" stop-opacity="0"/><stop offset="0.58" stop-color="#000000" stop-opacity="0"/><stop offset="1" stop-color="#000000" stop-opacity="0.35"/></linearGradient>
<linearGradient id="rimg" x1="0.1" y1="0" x2="0.9" y2="1"><stop offset="0" stop-color="#FFF3C4"/><stop offset="0.3" stop-color="#EAC36B"/><stop offset="0.5" stop-color="#C8973A"/><stop offset="0.72" stop-color="#F0D27E"/><stop offset="1" stop-color="#8A5E12"/></linearGradient>
<radialGradient id="disc" cx="0.42" cy="0.36" r="0.72"><stop offset="0" stop-color="#FFFFFF"/><stop offset="1" stop-color="#FBF5E7"/></radialGradient>
<radialGradient id="ins" cx="0.5" cy="0.46" r="0.55"><stop offset="0.72" stop-color="#4A3308" stop-opacity="0"/><stop offset="1" stop-color="#4A3308" stop-opacity="0.3"/></radialGradient>
<radialGradient id="hl" cx="0.5" cy="0.42" r="0.48"><stop offset="0" stop-color="#FFFFFF" stop-opacity="0.32"/><stop offset="0.6" stop-color="#FFFFFF" stop-opacity="0.08"/><stop offset="1" stop-color="#FFFFFF" stop-opacity="0"/></radialGradient>
<linearGradient id="grain" x1="0.3" y1="0" x2="0.7" y2="1"><stop offset="0" stop-color="#FDF3C4"/><stop offset="0.5" stop-color="#EAC36B"/><stop offset="1" stop-color="#B9821F"/></linearGradient>
</defs>
<g transform="translate(120,120)">
<circle r="100" fill="url(#ring)" stroke="#5A3E0A" stroke-width="2"/>
<circle r="100" fill="url(#bev)"/>
<g fill="#EAC36B" stroke="#8A5E12" stroke-width="0.8"><path d="M0 -92 l6 10 -6 5 -6 -5 z"/><path d="M0 92 l6 -10 -6 -5 -6 5 z"/><path d="M-92 0 l10 6 5 -6 -5 -6 z"/><path d="M92 0 l-10 6 -5 -6 5 -6 z"/></g>
<circle r="85" fill="url(#rimg)"/>
<circle r="85" fill="url(#bev)"/>
<circle r="76" fill="url(#disc)"/>
<circle r="76" fill="url(#ins)"/>
<circle cy="-2" r="52" fill="url(#hl)"/>
<circle cy="4" r="30" fill="#FFF6D0" opacity="0.5"/>
<ellipse cy="6" rx="14" ry="24" fill="url(#grain)" stroke="#9A6512" stroke-width="2" transform="rotate(-14)"/>
<g transform="translate(-38,-40)"><path d="M0 -11 L2.6 -2.6 L11 0 L2.6 2.6 L0 11 L-2.6 2.6 L-11 0 L-2.6 -2.6 Z" fill="#FFFFFF"/></g>
<g transform="translate(-58,10)"><path d="M0 -6 L1.4 -1.4 L6 0 L1.4 1.4 L0 6 L-1.4 1.4 L-6 0 L-1.4 -1.4 Z" fill="#FFFFFF"/></g>
<g transform="translate(48,-46)"><path d="M0 -6 L1.4 -1.4 L6 0 L1.4 1.4 L0 6 L-1.4 1.4 L-6 0 L-1.4 -1.4 Z" fill="#FFFFFF"/></g>
<g transform="translate(52,30)"><path d="M0 -5 L1.2 -1.2 L5 0 L1.2 1.2 L0 5 L-1.2 1.2 L-5 0 L-1.2 -1.2 Z" fill="#FFFFFF"/></g>
</g>
</svg>
